#tb 0: 1/10
#media_type 0: video
#codec_id 0: rawvideo
#dimensions 0: 320x240
#sar 0: 1/1
0,          0,          0,        1,   115200, 0x3744b3ed
0,          1,          1,        1,   115200, 0xec1fdfa0
0,          2,          2,        1,   115200, 0xa17f0d74
0,          3,          3,        1,   115200, 0xd72532a9
0,          4,          4,        1,   115200, 0x032e60f8
0,          5,          5,        1,   115200, 0x6e318ba0
0,          6,          6,        1,   115200, 0x76018292
0,          7,          7,        1,   115200, 0x89e27599
0,          8,          8,        1,   115200, 0x68536eac
0,          9,          9,        1,   115200, 0xc3ac62a8
